<svg width="799" height="483" viewBox="0 0 799 483" fill="none" xmlns="http://www.w3.org/2000/svg">
<path d="M124.14 22.2911L95.4524 71.98L124.14 121.669H181.516L210.204 71.98L181.516 22.2911" stroke="#DD2A1A" stroke-width="0.521598"/>
<path d="M180.995 121.532L209.683 71.8429H267.058L295.746 121.532L267.058 171.221" stroke="#DD2A1A" stroke-width="0.521598"/>
<path d="M295.225 22.2911L266.537 71.98L295.225 121.669H352.6L381.288 71.98" stroke="#DD2A1A" stroke-width="0.521598"/>
<path d="M266.537 171.084L295.225 121.395H352.6L381.288 171.084L352.6 220.773" stroke="#DD2A1A" stroke-width="0.521598"/>
<path d="M124.813 320.138L96.2753 270.71L124.813 221.281H181.887L210.425 270.71L181.887 320.138H124.813Z" stroke="#DD2A1A" stroke-width="0.521598"/>
<path d="M124.813 418.72L96.2753 369.292L124.813 319.863H181.887L210.425 369.292L181.887 418.72H124.813Z" stroke="#DD2A1A" stroke-width="0.521598"/>
<path d="M10.4319 319.739L39.1198 369.428H96.4956L125.184 319.739L96.4956 270.05" stroke="#DD2A1A" stroke-width="0.521598"/>
<path d="M10.4319 418.843L39.1198 369.154H96.4956L125.184 418.843L96.4956 468.532" stroke="#DD2A1A" stroke-width="0.521598"/>
<path d="M210.355 468.272L181.817 418.843L210.355 369.415H267.429L295.967 418.843L267.429 468.272H210.355Z" stroke="#DD2A1A" stroke-width="0.521598"/>
<path d="M295.746 319.602L267.058 369.291L295.746 418.98H353.122L381.81 369.291" stroke="#DD2A1A" stroke-width="0.521598"/>
<path d="M352.079 220.636L380.767 170.947H438.143L466.83 220.636L438.143 270.324" stroke="#DD2A1A" stroke-width="0.521598"/>
<path d="M437.621 270.187L466.309 220.498H523.685L552.372 270.187L523.685 319.876" stroke="#DD2A1A" stroke-width="0.521598"/>
<path d="M182.038 121.395H124.662L95.9741 171.084L124.662 220.773H182.038" stroke="#DD2A1A" stroke-width="0.521598"/>
<path d="M380.917 170.961L352.38 121.532L380.917 72.1043H437.992L466.529 121.532L437.992 170.961H380.917Z" stroke="#DD2A1A" stroke-width="0.521598"/>
<path d="M551.851 170.947L523.163 220.636L551.851 270.324H609.227L637.915 220.636" stroke="#DD2A1A" stroke-width="0.521598"/>
<path d="M637.544 319.616L609.006 270.188L637.544 220.76H694.618L723.156 270.188L694.618 319.616H637.544Z" stroke="#DD2A1A" stroke-width="0.521598"/>
<path d="M694.247 220.636L722.935 270.324H780.311" stroke="#DD2A1A" stroke-width="0.521598"/>
<path d="M523.685 121.395H466.309L437.621 171.084L466.309 220.773H523.685L552.372 171.084" stroke="#DD2A1A" stroke-width="0.521598"/>
<path d="M38.5984 71.8429H95.9742L124.662 121.532L95.9742 171.221H38.5984" stroke="#DD2A1A" stroke-width="0.521598"/>
<path d="M39.1199 171.468H96.4957L125.184 221.157L96.4957 270.846" stroke="#DD2A1A" stroke-width="0.521598"/>
<path d="M119.429 17.6467L125.23 14.2972L131.032 17.6467V24.3455L125.23 27.6949L119.429 24.3455V17.6467Z" fill="#DD2A1A" stroke="#DD2A1A" stroke-width="0.521598"/>
<path d="M263.199 164.651L269 161.301L274.801 164.651V171.349L269 174.699L263.199 171.349V164.651Z" fill="#DD2A1A" stroke="#DD2A1A" stroke-width="0.521598"/>
<path d="M90.2191 467.787L96.0205 464.438L101.822 467.787V474.486L96.0205 477.836L90.2191 474.486V467.787Z" fill="#DD2A1A" stroke="#DD2A1A" stroke-width="0.521598"/>
<path d="M5.19862 314.959L11 311.61L16.8014 314.959V321.658L11 325.007L5.19862 321.658V314.959Z" fill="#DD2A1A" stroke="#DD2A1A" stroke-width="0.521598"/>
<path d="M291.035 312.871L296.836 309.522L302.637 312.871V319.57L296.836 322.92L291.035 319.57V312.871Z" fill="#DD2A1A" stroke="#DD2A1A" stroke-width="0.521598"/>
<path d="M29.1986 167.651L35 164.301L40.8014 167.651V174.349L35 177.699L29.1986 174.349V167.651Z" fill="#DD2A1A" stroke="#DD2A1A" stroke-width="0.521598"/>
<path d="M290.199 17.6506L296 14.3011L301.801 17.6506V24.3494L296 27.6989L290.199 24.3494V17.6506Z" fill="#DD2A1A" stroke="#DD2A1A" stroke-width="0.521598"/>
<path d="M432.388 265.406L438.189 262.057L443.991 265.406V272.105L438.189 275.455L432.388 272.105V265.406Z" fill="#DD2A1A" stroke="#DD2A1A" stroke-width="0.521598"/>
<path d="M547.139 166.824L552.94 163.475L558.742 166.824V173.523L552.94 176.873L547.139 173.523V166.824Z" fill="#DD2A1A" stroke="#DD2A1A" stroke-width="0.521598"/>
<path d="M777.199 267.651L783 264.301L788.801 267.651V274.349L783 277.699L777.199 274.349V267.651Z" fill="#DD2A1A" stroke="#DD2A1A" stroke-width="0.521598"/>
<path d="M603.472 265.928L609.273 262.578L615.075 265.928V272.627L609.273 275.976L603.472 272.627V265.928Z" fill="#DD2A1A" stroke="#DD2A1A" stroke-width="0.521598"/>
<path d="M346.845 116.75L352.646 113.401L358.448 116.75V123.449L352.646 126.798L346.845 123.449V116.75Z" fill="#DD2A1A" stroke="#DD2A1A" stroke-width="0.521598"/>
<path d="M176.804 116.75L182.605 113.401L188.407 116.75V123.449L182.605 126.798L176.804 123.449V116.75Z" fill="#DD2A1A" stroke="#DD2A1A" stroke-width="0.521598"/>
<path d="M119.951 218.985L125.752 215.635L131.553 218.985V225.683L125.752 229.033L119.951 225.683V218.985Z" fill="#DD2A1A" stroke="#DD2A1A" stroke-width="0.521598"/>
<path d="M204.971 364.51L210.772 361.161L216.574 364.51V371.209L210.772 374.558L204.971 371.209V364.51Z" fill="#DD2A1A" stroke="#DD2A1A" stroke-width="0.521598"/>
<path d="M5.39248 311.436C4.69979 311.436 3.87358 311.369 2.91384 311.235V310.221C3.88193 310.43 4.73318 310.534 5.46759 310.534C6.08516 310.534 6.53582 310.468 6.81957 310.334C7.10332 310.192 7.24519 309.934 7.24519 309.558V308.506C7.24519 308.156 7.14505 307.91 6.94475 307.768C6.74446 307.626 6.39394 307.555 5.89321 307.555H4.94181C4.14898 307.555 3.58566 307.396 3.25184 307.079C2.91801 306.762 2.7511 306.27 2.7511 305.602V304.951C2.7511 304.509 2.84708 304.15 3.03902 303.875C3.23932 303.599 3.56897 303.395 4.02797 303.261C4.49533 303.128 5.13376 303.061 5.94328 303.061C6.48575 303.061 7.1826 303.107 8.03385 303.199V304.112C7.08245 303.971 6.35639 303.9 5.85565 303.9C5.07952 303.9 4.56626 303.975 4.3159 304.125C4.05718 304.284 3.92783 304.546 3.92783 304.914V305.84C3.92783 306.124 4.02797 306.332 4.22827 306.466C4.43691 306.591 4.79159 306.654 5.29233 306.654H6.26876C6.82791 306.654 7.26188 306.72 7.57067 306.854C7.8878 306.988 8.10896 307.192 8.23414 307.467C8.36767 307.734 8.43444 308.098 8.43444 308.557V309.145C8.43444 309.721 8.32594 310.176 8.10896 310.509C7.90032 310.843 7.57484 311.081 7.13253 311.223C6.69021 311.365 6.11019 311.436 5.39248 311.436Z" fill="#DD2A1A"/>
<path d="M217.392 361.125C216.7 361.125 215.874 361.058 214.914 360.925V359.911C215.882 360.12 216.733 360.224 217.468 360.224C218.085 360.224 218.536 360.157 218.82 360.024C219.103 359.882 219.245 359.623 219.245 359.247V358.196C219.245 357.845 219.145 357.599 218.945 357.457C218.744 357.315 218.394 357.244 217.893 357.244H216.942C216.149 357.244 215.586 357.086 215.252 356.769C214.918 356.452 214.751 355.959 214.751 355.292V354.641C214.751 354.198 214.847 353.839 215.039 353.564C215.239 353.289 215.569 353.084 216.028 352.951C216.495 352.817 217.134 352.75 217.943 352.75C218.486 352.75 219.183 352.796 220.034 352.888V353.802C219.082 353.66 218.356 353.589 217.856 353.589C217.08 353.589 216.566 353.664 216.316 353.814C216.057 353.973 215.928 354.236 215.928 354.603V355.529C215.928 355.813 216.028 356.022 216.228 356.155C216.437 356.281 216.792 356.343 217.292 356.343H218.269C218.828 356.343 219.262 356.41 219.571 356.543C219.888 356.677 220.109 356.881 220.234 357.157C220.368 357.424 220.434 357.787 220.434 358.246V358.834C220.434 359.41 220.326 359.865 220.109 360.199C219.9 360.533 219.575 360.77 219.133 360.912C218.69 361.054 218.11 361.125 217.392 361.125Z" fill="#DD2A1A"/>
<path d="M133.231 215.125C130.961 215.125 129.826 214.391 129.826 212.922V209.079C129.826 207.527 130.961 206.75 133.231 206.75C135.526 206.75 136.674 207.522 136.674 209.066V212.922C136.674 213.706 136.357 214.27 135.722 214.612C135.088 214.954 134.258 215.125 133.231 215.125ZM133.256 214.311C134.75 214.311 135.497 213.844 135.497 212.909V209.041C135.497 208.04 134.746 207.539 133.244 207.539C132.518 207.539 131.959 207.652 131.566 207.877C131.182 208.102 130.99 208.49 130.99 209.041V212.909C130.99 213.844 131.746 214.311 133.256 214.311Z" fill="#DD2A1A"/>
<path d="M26.0515 155.876H27.2658V163.149H31.2592V164H26.0515V155.876Z" fill="#DD2A1A"/>
<path d="M132.231 14.1252C129.961 14.1252 128.826 13.3908 128.826 11.922V8.07882C128.826 6.52654 129.961 5.7504 132.231 5.7504C134.526 5.7504 135.674 6.52237 135.674 8.0663V11.922C135.674 12.7064 135.357 13.2698 134.722 13.6119C134.088 13.9541 133.258 14.1252 132.231 14.1252ZM132.256 13.3115C133.75 13.3115 134.497 12.8441 134.497 11.9094V8.04126C134.497 7.03979 133.746 6.53906 132.244 6.53906C131.518 6.53906 130.959 6.65172 130.566 6.87705C130.182 7.10238 129.99 7.49045 129.99 8.04126V11.9094C129.99 12.8441 130.746 13.3115 132.256 13.3115Z" fill="#DD2A1A"/>
<path d="M301.052 5.87558H302.266V13.1488H306.259V14H301.052V5.87558Z" fill="#DD2A1A"/>
<path d="M545.052 153.876H546.266V161.149H550.259V162H545.052V153.876Z" fill="#DD2A1A"/>
<path d="M261.99 182.731C259.72 182.731 258.585 181.996 258.585 180.527V176.684C258.585 175.132 259.72 174.356 261.99 174.356C264.285 174.356 265.433 175.128 265.433 176.672V180.527C265.433 181.312 265.115 181.875 264.481 182.217C263.847 182.56 263.016 182.731 261.99 182.731ZM262.015 181.917C263.509 181.917 264.256 181.45 264.256 180.515V176.647C264.256 175.645 263.505 175.145 262.003 175.145C261.276 175.145 260.717 175.257 260.325 175.483C259.941 175.708 259.749 176.096 259.749 176.647V180.515C259.749 181.45 260.504 181.917 262.015 181.917Z" fill="#DD2A1A"/>
<path d="M609.231 289.125C606.961 289.125 605.826 288.391 605.826 286.922V283.079C605.826 281.527 606.961 280.75 609.231 280.75C611.526 280.75 612.674 281.522 612.674 283.066V286.922C612.674 287.706 612.357 288.27 611.722 288.612C611.088 288.954 610.258 289.125 609.231 289.125ZM609.256 288.311C610.75 288.311 611.497 287.844 611.497 286.909V283.041C611.497 282.04 610.746 281.539 609.244 281.539C608.518 281.539 607.959 281.652 607.566 281.877C607.182 282.102 606.99 282.49 606.99 283.041V286.909C606.99 287.844 607.746 288.311 609.256 288.311Z" fill="#DD2A1A"/>
<path d="M347.392 113.125C346.7 113.125 345.874 113.058 344.914 112.925V111.911C345.882 112.12 346.733 112.224 347.468 112.224C348.085 112.224 348.536 112.157 348.82 112.024C349.103 111.882 349.245 111.623 349.245 111.247V110.196C349.245 109.845 349.145 109.599 348.945 109.457C348.744 109.315 348.394 109.244 347.893 109.244H346.942C346.149 109.244 345.586 109.086 345.252 108.769C344.918 108.452 344.751 107.959 344.751 107.292V106.641C344.751 106.198 344.847 105.839 345.039 105.564C345.239 105.289 345.569 105.084 346.028 104.951C346.495 104.817 347.134 104.75 347.943 104.75C348.486 104.75 349.183 104.796 350.034 104.888V105.802C349.082 105.66 348.356 105.589 347.856 105.589C347.08 105.589 346.566 105.664 346.316 105.814C346.057 105.973 345.928 106.236 345.928 106.603V107.529C345.928 107.813 346.028 108.022 346.228 108.155C346.437 108.281 346.792 108.343 347.292 108.343H348.269C348.828 108.343 349.262 108.41 349.571 108.543C349.888 108.677 350.109 108.881 350.234 109.157C350.368 109.424 350.434 109.787 350.434 110.246V110.834C350.434 111.41 350.326 111.865 350.109 112.199C349.9 112.533 349.575 112.77 349.133 112.912C348.69 113.054 348.11 113.125 347.392 113.125Z" fill="#DD2A1A"/>
<path d="M430.392 262.125C429.7 262.125 428.874 262.058 427.914 261.925V260.911C428.882 261.12 429.733 261.224 430.468 261.224C431.085 261.224 431.536 261.157 431.82 261.024C432.103 260.882 432.245 260.623 432.245 260.247V259.196C432.245 258.845 432.145 258.599 431.945 258.457C431.744 258.315 431.394 258.244 430.893 258.244H429.942C429.149 258.244 428.586 258.086 428.252 257.769C427.918 257.452 427.751 256.959 427.751 256.292V255.641C427.751 255.198 427.847 254.839 428.039 254.564C428.239 254.289 428.569 254.084 429.028 253.951C429.495 253.817 430.134 253.75 430.943 253.75C431.486 253.75 432.183 253.796 433.034 253.888V254.802C432.082 254.66 431.356 254.589 430.856 254.589C430.08 254.589 429.566 254.664 429.316 254.814C429.057 254.973 428.928 255.236 428.928 255.603V256.529C428.928 256.813 429.028 257.022 429.228 257.155C429.437 257.281 429.792 257.343 430.292 257.343H431.269C431.828 257.343 432.262 257.41 432.571 257.543C432.888 257.677 433.109 257.881 433.234 258.157C433.368 258.424 433.434 258.787 433.434 259.246V259.834C433.434 260.41 433.326 260.865 433.109 261.199C432.9 261.533 432.575 261.77 432.133 261.912C431.69 262.054 431.11 262.125 430.392 262.125Z" fill="#DD2A1A"/>
<path d="M789.392 264.125C788.7 264.125 787.874 264.058 786.914 263.925V262.911C787.882 263.12 788.733 263.224 789.468 263.224C790.085 263.224 790.536 263.157 790.82 263.024C791.103 262.882 791.245 262.623 791.245 262.247V261.196C791.245 260.845 791.145 260.599 790.945 260.457C790.744 260.315 790.394 260.244 789.893 260.244H788.942C788.149 260.244 787.586 260.086 787.252 259.769C786.918 259.452 786.751 258.959 786.751 258.292V257.641C786.751 257.198 786.847 256.839 787.039 256.564C787.239 256.289 787.569 256.084 788.028 255.951C788.495 255.817 789.134 255.75 789.943 255.75C790.486 255.75 791.183 255.796 792.034 255.888V256.802C791.082 256.66 790.356 256.589 789.856 256.589C789.08 256.589 788.566 256.664 788.316 256.814C788.057 256.973 787.928 257.236 787.928 257.603V258.529C787.928 258.813 788.028 259.022 788.228 259.155C788.437 259.281 788.792 259.343 789.292 259.343H790.269C790.828 259.343 791.262 259.41 791.571 259.543C791.888 259.677 792.109 259.881 792.234 260.157C792.368 260.424 792.434 260.787 792.434 261.246V261.834C792.434 262.41 792.326 262.865 792.109 263.199C791.9 263.533 791.575 263.77 791.133 263.912C790.69 264.054 790.11 264.125 789.392 264.125Z" fill="#DD2A1A"/>
<path d="M175.392 138.125C174.7 138.125 173.874 138.058 172.914 137.925V136.911C173.882 137.12 174.733 137.224 175.468 137.224C176.085 137.224 176.536 137.157 176.82 137.024C177.103 136.882 177.245 136.623 177.245 136.247V135.196C177.245 134.845 177.145 134.599 176.945 134.457C176.744 134.315 176.394 134.244 175.893 134.244H174.942C174.149 134.244 173.586 134.086 173.252 133.769C172.918 133.452 172.751 132.959 172.751 132.292V131.641C172.751 131.198 172.847 130.839 173.039 130.564C173.239 130.289 173.569 130.084 174.028 129.951C174.495 129.817 175.134 129.75 175.943 129.75C176.486 129.75 177.183 129.796 178.034 129.888V130.802C177.082 130.66 176.356 130.589 175.856 130.589C175.08 130.589 174.566 130.664 174.316 130.814C174.057 130.973 173.928 131.236 173.928 131.603V132.529C173.928 132.813 174.028 133.022 174.228 133.155C174.437 133.281 174.792 133.343 175.292 133.343H176.269C176.828 133.343 177.262 133.41 177.571 133.543C177.888 133.677 178.109 133.881 178.234 134.157C178.368 134.424 178.434 134.787 178.434 135.246V135.834C178.434 136.41 178.326 136.865 178.109 137.199C177.9 137.533 177.575 137.77 177.133 137.912C176.69 138.054 176.11 138.125 175.392 138.125Z" fill="#DD2A1A"/>
<path d="M307.052 311.876H308.266V319.149H312.259V320H307.052V311.876Z" fill="#DD2A1A"/>
<path d="M82.2312 476.125C79.9612 476.125 78.8262 475.391 78.8262 473.922V470.079C78.8262 468.527 79.9612 467.75 82.2312 467.75C84.5262 467.75 85.6738 468.522 85.6738 470.066V473.922C85.6738 474.706 85.3566 475.27 84.7224 475.612C84.0881 475.954 83.2577 476.125 82.2312 476.125ZM82.2562 475.311C83.7501 475.311 84.497 474.844 84.497 473.909V470.041C84.497 469.04 83.7459 468.539 82.2437 468.539C81.5177 468.539 80.9585 468.652 80.5663 468.877C80.1824 469.102 79.9904 469.49 79.9904 470.041V473.909C79.9904 474.844 80.7457 475.311 82.2562 475.311Z" fill="#DD2A1A"/>
</svg>
